<svg width="128" height="128" viewBox="0 0 128 128" fill="none" xmlns="http://www.w3.org/2000/svg">
<path d="M46.9508 98.6794C47.1164 99.1333 47.1992 99.6916 47.1992 100.354C47.1992 101.017 47.1164 101.577 46.9508 102.035C46.7885 102.489 46.5469 102.835 46.2258 103.072C45.9081 103.307 45.516 103.424 45.0496 103.424C44.5831 103.424 44.1894 103.307 43.8683 103.072C43.5506 102.835 43.3089 102.489 43.1433 102.035C42.9811 101.577 42.9 101.017 42.9 100.354C42.9 99.6916 42.9811 99.1333 43.1433 98.6794C43.3089 98.2219 43.5506 97.8761 43.8683 97.6419C44.1894 97.4042 44.5831 97.2853 45.0496 97.2853C45.516 97.2853 45.9081 97.4042 46.2258 97.6419C46.5469 97.8761 46.7885 98.2219 46.9508 98.6794Z" fill="#68E366"/>
<path d="M54.2881 102.786C54.1901 102.491 54.1411 102.141 54.1411 101.738C54.1411 101.327 54.1901 100.976 54.2881 100.684C54.3895 100.389 54.5314 100.164 54.714 100.009C54.8999 99.8501 55.1212 99.7709 55.3781 99.7709C55.635 99.7709 55.853 99.8501 56.0321 100.009C56.2146 100.164 56.3532 100.389 56.4478 100.684C56.5459 100.976 56.5949 101.327 56.5949 101.738C56.5949 102.148 56.5459 102.501 56.4478 102.797C56.3532 103.089 56.2146 103.314 56.0321 103.472C55.853 103.627 55.635 103.705 55.3781 103.705C55.1212 103.705 54.8999 103.625 54.714 103.467C54.5314 103.305 54.3895 103.078 54.2881 102.786Z" fill="#68E366"/>
<path d="M67.3442 100.787C67.351 100.545 67.4101 100.335 67.5217 100.155C67.6366 99.9744 67.7887 99.8339 67.9779 99.7331C68.1672 99.6286 68.3751 99.5764 68.6015 99.5764C68.8347 99.5764 69.0426 99.6286 69.2251 99.7331C69.411 99.8339 69.558 99.9762 69.6662 100.16C69.7777 100.34 69.8352 100.549 69.8386 100.787H67.3442Z" fill="#68E366"/>
<path fill-rule="evenodd" clip-rule="evenodd" d="M118 64C118 93.8234 93.8234 118 64 118C34.1766 118 10 93.8234 10 64C10 34.1766 34.1766 10 64 10C93.8234 10 118 34.1766 118 64ZM88.3109 50.6739C84.8745 50.4114 81.0852 50.4617 78.4973 51.3326C76.7228 51.9298 77.6131 54.1961 79.4829 54.0861C81.9412 53.9414 84.4036 53.9886 86.6314 54.3664C90.3351 54.9945 94.6014 56.7429 97.7896 58.2279C99.4174 58.9862 100.83 59.707 101.836 60.2389C102.495 60.5873 102.731 61.4066 102.369 62.0565L100.86 64.7669C100.526 65.3675 99.7662 65.5842 99.157 65.2622C98.2143 64.7639 96.8901 64.088 95.3687 63.3794C92.2586 61.9307 88.5749 60.4653 85.6721 59.973C81.7828 59.3134 76.504 59.9295 71.9513 60.8182C71.4402 60.918 71.3037 61.5814 71.721 61.8917C72.4745 62.452 73.1986 63.0393 73.8299 63.6321C76.5703 66.2056 78.8943 70.1304 80.4684 73.1746C81.2773 74.739 81.9304 76.1553 82.3819 77.1815C82.6784 77.8555 82.352 78.6346 81.6685 78.9148L78.7445 80.1139C78.1255 80.3677 77.4176 80.0736 77.1491 79.4632C76.7331 78.5177 76.1311 77.2125 75.3892 75.7777C73.8616 72.8235 71.901 69.6391 69.91 67.7693C68.1825 66.1471 65.8679 69.9376 65.8679 69.9376L66.5672 90.3077H59.1249L60.0765 69.5423C60.0765 69.5423 57.9063 66.7598 56.5689 67.8782C54.117 69.9286 51.4297 73.2438 49.2805 76.1944C48.9394 76.6627 48.6155 77.1166 48.3123 77.5486C47.4086 78.8358 45.6408 79.203 44.3224 78.3407C43.004 77.4783 42.6342 75.7131 43.5359 74.4244C43.8838 73.9273 44.2586 73.4009 44.6557 72.8557C46.8519 69.8405 49.8773 66.0465 52.8945 63.5233C53.3887 63.11 53.1005 62.2963 52.4572 62.3487C51.4635 62.4297 50.5319 62.5646 49.7228 62.7694C47.1022 63.4327 43.8882 65.3059 41.1489 67.2091C40.6274 67.5715 40.1344 67.9269 39.6789 68.264C38.6031 69.0602 37.1221 69.0746 36.0658 68.2528L34.3157 66.8913C33.7693 66.4662 33.755 65.6482 34.2963 65.2165C35.1791 64.5124 36.4247 63.5561 37.8794 62.5453C40.7051 60.5819 44.632 58.1896 48.3152 57.2574C48.6478 57.1732 48.6377 56.6629 48.2972 56.6203C43.426 56.0098 40.6001 56.6449 39.0757 57.2952C38.0023 57.7533 36.722 57.9668 35.6888 57.4248L33.8384 56.4542C33.0478 56.0394 32.8307 55.0112 33.3869 54.3147C34.1292 53.5757 35.2345 52.7465 36.8254 52.0677C40.0088 50.7095 44.9166 50.0405 52.4355 51.5376C53.6454 51.7785 55.0442 52.3398 56.3147 52.9223C57.636 53.5281 59.0234 54.2539 60.2685 54.94C61.7206 55.7402 63.5342 55.4712 64.7094 54.3044C65.0978 53.9187 65.5106 53.5187 65.9442 53.1115C68.7104 50.5134 72.6604 47.2934 76.668 45.9447C80.4206 44.6819 85.2004 44.7322 88.7479 45.0032C90.5793 45.143 92.1983 45.3524 93.3602 45.5267C94.3297 45.688 94.9769 46.6108 94.7951 47.5725L94.3624 49.8618C94.1998 50.7219 93.3762 51.2946 92.5091 51.1505C91.4483 50.9914 89.9715 50.8007 88.3109 50.6739ZM63.4442 97.5879V106.169C63.4442 106.896 63.3006 107.465 63.0133 107.876C62.7294 108.287 62.3306 108.577 61.8168 108.746C61.3031 108.915 60.7031 109 60.017 109C59.9156 109 59.8227 108.998 59.7382 108.995C59.6503 108.991 59.554 108.986 59.4492 108.978V106.774C59.5168 106.781 59.5759 106.786 59.6266 106.79C59.674 106.794 59.723 106.795 59.7737 106.795C60.1083 106.795 60.3364 106.74 60.4581 106.628C60.5831 106.52 60.6457 106.345 60.6457 106.104V97.5879H63.4442ZM62.045 96.7233C61.6664 96.7233 61.3419 96.5901 61.0715 96.3235C60.8012 96.0569 60.666 95.7363 60.666 95.3617C60.666 94.987 60.8012 94.6664 61.0715 94.3999C61.3419 94.1333 61.6664 94 62.045 94C62.4269 94 62.7514 94.1333 63.0184 94.3999C63.2888 94.6664 63.424 94.987 63.424 95.3617C63.424 95.7363 63.2888 96.0569 63.0184 96.3235C62.7514 96.5901 62.4269 96.7233 62.045 96.7233ZM49.4248 103.472C49.8744 102.626 50.0991 101.586 50.0991 100.354C50.0991 99.1225 49.8744 98.085 49.4248 97.2421C48.9753 96.3955 48.3686 95.7561 47.6048 95.3238C46.8409 94.888 45.9892 94.67 45.0496 94.67C44.1032 94.67 43.2481 94.888 42.4842 95.3238C41.7237 95.7561 41.1187 96.3955 40.6692 97.2421C40.2231 98.085 40 99.1225 40 100.354C40 101.579 40.2231 102.615 40.6692 103.461C41.1187 104.304 41.7237 104.946 42.4842 105.385C43.2481 105.821 44.1032 106.039 45.0496 106.039C45.9892 106.039 46.8409 105.823 47.6048 105.39C48.3686 104.955 48.9753 104.315 49.4248 103.472ZM51.4034 94.8213V105.888H54.1816V104.526H54.2425C54.3506 104.807 54.5044 105.059 54.7038 105.282C54.9066 105.502 55.15 105.677 55.4339 105.807C55.7212 105.933 56.0473 105.996 56.4124 105.996C56.9667 105.996 57.4753 105.841 57.9384 105.531C58.4048 105.221 58.7766 104.751 59.0537 104.121C59.3343 103.49 59.4745 102.696 59.4745 101.738C59.4745 100.736 59.3275 99.9222 59.0335 99.2954C58.7428 98.6686 58.3642 98.2093 57.8978 97.9175C57.4348 97.6257 56.9464 97.4798 56.4326 97.4798C56.0473 97.4798 55.7093 97.5519 55.4187 97.696C55.128 97.8365 54.8846 98.0256 54.6886 98.2633C54.4926 98.4975 54.3439 98.755 54.2425 99.036H54.2019V94.8213H51.4034ZM66.4519 105.531C67.0535 105.87 67.7701 106.039 68.6015 106.039C69.3215 106.039 69.9501 105.924 70.4875 105.693C71.0283 105.459 71.4626 105.131 71.7905 104.71C72.1183 104.285 72.3262 103.784 72.4141 103.207H69.8589C69.8048 103.362 69.7203 103.496 69.6054 103.607C69.4904 103.715 69.3519 103.798 69.1896 103.856C69.0308 103.914 68.855 103.942 68.6624 103.942C68.3852 103.942 68.1486 103.883 67.9526 103.764C67.7566 103.645 67.6062 103.481 67.5014 103.272C67.3966 103.063 67.3442 102.826 67.3442 102.559V102.429H72.4141V101.738C72.4141 101.079 72.3228 100.486 72.1403 99.96C71.9578 99.4341 71.6975 98.9874 71.3595 98.62C71.0215 98.2489 70.6143 97.9661 70.1377 97.7716C69.6611 97.5771 69.1288 97.4798 68.5407 97.4798C67.7363 97.4798 67.0383 97.6581 66.4468 98.0148C65.8554 98.3714 65.3974 98.8703 65.0729 99.5115C64.7485 100.153 64.5862 100.902 64.5862 101.759C64.5862 102.653 64.7468 103.42 65.0678 104.061C65.3923 104.699 65.8537 105.189 66.4519 105.531ZM77.3077 106.039C76.4628 106.039 75.7395 105.861 75.1378 105.504C74.5362 105.144 74.0749 104.643 73.7538 104.002C73.4327 103.357 73.2721 102.61 73.2721 101.759C73.2721 100.909 73.4327 100.164 73.7538 99.5223C74.0749 98.8775 74.5362 98.3768 75.1378 98.0202C75.7395 97.6599 76.4628 97.4798 77.3077 97.4798C78.0716 97.4798 78.7324 97.6275 79.29 97.9229C79.8511 98.2147 80.2854 98.629 80.593 99.1657C80.9006 99.6988 81.056 100.326 81.0594 101.046H78.4636C78.4265 100.61 78.3082 100.279 78.1088 100.052C77.9127 99.8213 77.6592 99.7061 77.3483 99.7061C77.1049 99.7061 76.892 99.7817 76.7095 99.933C76.527 100.081 76.385 100.306 76.2836 100.608C76.1822 100.907 76.1315 101.284 76.1315 101.738C76.1315 102.192 76.1822 102.57 76.2836 102.872C76.385 103.171 76.527 103.397 76.7095 103.548C76.892 103.696 77.1049 103.769 77.3483 103.769C77.5545 103.769 77.737 103.719 77.8958 103.618C78.0547 103.514 78.1831 103.362 78.2811 103.164C78.3825 102.963 78.4434 102.718 78.4636 102.429H81.0594C81.0493 103.161 80.8921 103.798 80.5879 104.342C80.2837 104.883 79.8528 105.3 79.2951 105.596C78.7408 105.891 78.0783 106.039 77.3077 106.039ZM86.858 99.7493V97.5879H85.5196V95.5994H82.7211V97.5879H81.7274V99.7493H82.7211V103.499C82.7143 104.079 82.8208 104.562 83.0405 104.947C83.2601 105.333 83.588 105.616 84.024 105.796C84.46 105.972 84.9991 106.043 85.6413 106.006C85.959 105.988 86.2328 105.951 86.4626 105.893C86.6958 105.835 86.8749 105.787 87 105.747L86.5944 103.651C86.5403 103.665 86.4558 103.683 86.3409 103.705C86.2294 103.726 86.1314 103.737 86.0469 103.737C85.9252 103.737 85.8255 103.719 85.7477 103.683C85.67 103.643 85.6126 103.586 85.5754 103.51C85.5382 103.431 85.5196 103.334 85.5196 103.218V99.7493H86.858Z" fill="#68E366"/>
</svg>
